<?xml version="1.0" standalone="no"?><!DOCTYPE svg PUBLIC "-//W3C//DTD SVG 1.1//EN" "http://www.w3.org/Graphics/SVG/1.1/DTD/svg11.dtd"><svg t="1730194169564" class="icon" viewBox="0 0 1024 1024" version="1.1" xmlns="http://www.w3.org/2000/svg" p-id="1493" xmlns:xlink="http://www.w3.org/1999/xlink" width="200" height="200"><path d="M1002.666667 138.965333V136.533333a115.2 115.2 0 0 0-210.048-65.194666A114.432 114.432 0 0 0 605.866667 72.533333a114.474667 114.474667 0 0 0-187.733334 0 114.432 114.432 0 0 0-186.752-1.365333A114.517333 114.517333 0 0 0 136.533333 21.333333 115.882667 115.882667 0 0 0 21.333333 138.965333a113.664 113.664 0 0 0 47.658667 92.629334A114.432 114.432 0 0 0 69.930667 418.133333a114.944 114.944 0 0 0 0 187.733334 114.474667 114.474667 0 0 0-0.896 186.581333 115.712 115.712 0 1 0 160.682666 162.133333h1.365334a114.261333 114.261333 0 0 0 186.368 0h1.365333a114.218667 114.218667 0 0 0 186.325333 0h1.408a114.218667 114.218667 0 0 0 186.325334 0h1.450666a114.858667 114.858667 0 0 0 208.341334-69.504 113.749333 113.749333 0 0 0-47.658667-92.672 114.432 114.432 0 0 0-0.938667-186.538666 114.944 114.944 0 0 0 0-187.733334 114.432 114.432 0 0 0 0.938667-186.538666A113.664 113.664 0 0 0 1002.666667 138.965333zM768 192A64 64 0 0 1 832 256v512a64 64 0 0 1-64 64H256A64 64 0 0 1 192 768V256A64 64 0 0 1 256 192z" p-id="1494"></path><path d="M512 234.666667l-9.984 21.888a64 64 0 0 0 6.656 47.274666v0.426667l0.341333 0.256 267.392 62.933333a10.666667 10.666667 0 0 0 13.098667-10.368V256a21.333333 21.333333 0 0 0-21.333333-21.333333zM501.845333 346.709333a10.666667 10.666667 0 0 0-12.373333 6.570667l-82.730667 215.082667A21.333333 21.333333 0 0 0 426.666667 597.333333h42.666666v64a64 64 0 0 0 64 64h96a10.666667 10.666667 0 0 1 10.666667 10.666667v42.666667a10.666667 10.666667 0 0 0 10.666667 10.666666H768a21.333333 21.333333 0 0 0 21.333333-21.333333V422.826667a10.709333 10.709333 0 0 0-8.234666-10.410667zM597.333333 416a32 32 0 1 1-32 32 32 32 0 0 1 32-32z" p-id="1495"></path></svg>